<svg version="1.1" id="Layer_1" xmlns="http://www.w3.org/2000/svg" xmlns:xlink="http://www.w3.org/1999/xlink" x="0px" y="0px"
	 width="100%" viewBox="0 0 500 500" enable-background="new 0 0 500 500" xml:space="preserve">
<path fill="#000000" opacity="1.000000" stroke="none" 
	d="
M241.000000,501.000000 
	C160.666687,501.000000 80.833374,501.000000 1.000043,501.000000 
	C1.000029,334.333405 1.000029,167.666779 1.000014,1.000132 
	C167.666565,1.000088 334.333130,1.000088 500.999756,1.000044 
	C500.999847,167.666519 500.999847,334.333038 500.999939,500.999786 
	C414.500000,501.000000 328.000000,501.000000 241.000000,501.000000 
M163.895660,216.776123 
	C157.652237,221.726639 150.803925,226.084595 145.271637,231.731766 
	C123.092239,254.371750 122.060280,283.110779 142.903702,306.979248 
	C162.327637,329.222260 188.571136,338.591431 216.871155,344.210663 
	C216.871155,295.573364 216.871155,247.333038 216.871155,199.095520 
	C199.637909,198.924545 185.152863,212.889938 185.063065,229.763321 
	C184.951340,250.757629 185.034134,271.752960 185.032944,292.747833 
	C185.032867,294.149475 185.032928,295.551147 185.032928,297.566528 
	C174.969666,292.159698 166.660233,285.949463 160.246307,277.472595 
	C149.249374,262.938629 146.661713,247.313431 155.313278,230.802826 
	C157.897751,225.870590 161.766388,221.611282 165.646729,216.936737 
	C165.677078,216.675934 165.707443,216.415115 165.737793,216.154327 
	C165.331558,216.265976 164.925308,216.377625 163.895660,216.776123 
M313.088257,80.684608 
	C296.226715,83.103004 285.012512,95.884712 285.007904,112.849136 
	C284.987305,188.503494 284.997406,264.157837 285.010681,339.812195 
	C285.010925,341.199066 285.187378,342.585968 285.297668,344.208740 
	C289.149689,343.385681 292.578491,342.746368 295.960205,341.915527 
	C319.601471,336.107300 341.288239,326.499817 358.144073,308.304688 
	C370.550598,294.912323 376.923309,279.180237 372.871521,260.719849 
	C368.476532,240.695755 355.167877,227.352295 338.350037,216.954529 
	C338.230927,216.880859 337.847443,217.234772 337.307800,217.554916 
	C348.865479,230.366135 355.620270,244.747589 350.001221,262.217163 
	C344.661804,278.817444 332.272644,289.056091 317.086182,297.550751 
	C317.086182,294.713837 317.086212,292.882904 317.086212,291.051971 
	C317.086365,222.896393 317.086548,154.740829 317.086548,86.585258 
	C317.086548,85.252144 316.995667,83.911972 317.101410,82.587402 
	C317.319366,79.857567 315.673767,80.141655 313.088257,80.684608 
M188.944427,381.488007 
	C234.540298,393.219421 279.895294,392.712646 324.674408,377.802429 
	C348.980469,369.709137 370.926636,357.370941 387.484650,337.142059 
	C402.829865,318.394867 407.450470,297.277069 399.809814,274.081512 
	C397.809418,268.008728 394.254761,262.447906 391.413910,256.651978 
	C390.937012,256.877228 390.460144,257.102478 389.983246,257.327698 
	C390.200775,258.082794 390.406464,258.841522 390.637604,259.592407 
	C396.591644,278.936157 393.233124,296.748749 381.560272,313.048065 
	C370.740509,328.156158 356.324402,339.029449 339.676086,346.854279 
	C295.036591,367.835144 248.503250,371.104980 200.809464,360.403870 
	C174.320496,354.460510 149.880112,343.915375 130.203568,324.458069 
	C115.726723,310.142548 107.052490,293.245514 109.025360,272.239960 
	C109.497215,267.215973 110.881676,262.277710 112.107727,255.951691 
	C100.619804,271.364227 96.851433,287.477448 99.552803,304.894806 
	C102.327049,322.781952 112.234894,336.820587 125.514206,348.615784 
	C143.654388,364.728607 164.984207,374.785858 188.944427,381.488007 
M267.104950,144.508911 
	C267.104950,140.598846 267.104950,136.688782 267.104950,132.769836 
	C248.039230,133.453812 235.030029,146.871155 235.026459,165.238937 
	C235.015106,223.877365 235.022034,282.515778 235.021896,341.154205 
	C235.021881,342.794495 235.021881,344.434784 235.021881,346.515717 
	C245.865372,346.515717 256.367798,346.515717 267.104950,346.515717 
	C267.104950,279.087158 267.104950,212.296204 267.104950,144.508911 
M336.544586,216.880447 
	C336.629883,216.666840 336.715149,216.453232 336.800415,216.239624 
	C336.581360,216.298950 336.362305,216.358276 336.544586,216.880447 
z"/>
<path fill="#FEFEFE" opacity="1.000000" stroke="none" 
	d="
M313.505737,80.600830 
	C315.673767,80.141655 317.319366,79.857567 317.101410,82.587402 
	C316.995667,83.911972 317.086548,85.252144 317.086548,86.585258 
	C317.086548,154.740829 317.086365,222.896393 317.086212,291.051971 
	C317.086212,292.882904 317.086182,294.713837 317.086182,297.550751 
	C332.272644,289.056091 344.661804,278.817444 350.001221,262.217163 
	C355.620270,244.747589 348.865479,230.366135 337.307800,217.554916 
	C337.847443,217.234772 338.230927,216.880859 338.350037,216.954529 
	C355.167877,227.352295 368.476532,240.695755 372.871521,260.719849 
	C376.923309,279.180237 370.550598,294.912323 358.144073,308.304688 
	C341.288239,326.499817 319.601471,336.107300 295.960205,341.915527 
	C292.578491,342.746368 289.149689,343.385681 285.297668,344.208740 
	C285.187378,342.585968 285.010925,341.199066 285.010681,339.812195 
	C284.997406,264.157837 284.987305,188.503494 285.007904,112.849136 
	C285.012512,95.884712 296.226715,83.103004 313.505737,80.600830 
z"/>
<path fill="#FCFCFC" opacity="1.000000" stroke="none" 
	d="
M188.565765,381.345001 
	C164.984207,374.785858 143.654388,364.728607 125.514206,348.615784 
	C112.234894,336.820587 102.327049,322.781952 99.552803,304.894806 
	C96.851433,287.477448 100.619804,271.364227 112.107727,255.951691 
	C110.881676,262.277710 109.497215,267.215973 109.025360,272.239960 
	C107.052490,293.245514 115.726723,310.142548 130.203568,324.458069 
	C149.880112,343.915375 174.320496,354.460510 200.809464,360.403870 
	C248.503250,371.104980 295.036591,367.835144 339.676086,346.854279 
	C356.324402,339.029449 370.740509,328.156158 381.560272,313.048065 
	C393.233124,296.748749 396.591644,278.936157 390.637604,259.592407 
	C390.406464,258.841522 390.200775,258.082794 389.983246,257.327698 
	C390.460144,257.102478 390.937012,256.877228 391.413910,256.651978 
	C394.254761,262.447906 397.809418,268.008728 399.809814,274.081512 
	C407.450470,297.277069 402.829865,318.394867 387.484650,337.142059 
	C370.926636,357.370941 348.980469,369.709137 324.674408,377.802429 
	C279.895294,392.712646 234.540298,393.219421 188.565765,381.345001 
z"/>
<path fill="#FDFDFD" opacity="1.000000" stroke="none" 
	d="
M165.046661,217.043671 
	C161.766388,221.611282 157.897751,225.870590 155.313278,230.802826 
	C146.661713,247.313431 149.249374,262.938629 160.246307,277.472595 
	C166.660233,285.949463 174.969666,292.159698 185.032928,297.566528 
	C185.032928,295.551147 185.032867,294.149475 185.032944,292.747833 
	C185.034134,271.752960 184.951340,250.757629 185.063065,229.763321 
	C185.152863,212.889938 199.637909,198.924545 216.871155,199.095520 
	C216.871155,247.333038 216.871155,295.573364 216.871155,344.210663 
	C188.571136,338.591431 162.327637,329.222260 142.903702,306.979248 
	C122.060280,283.110779 123.092239,254.371750 145.271637,231.731766 
	C150.803925,226.084595 157.652237,221.726639 164.335785,216.774612 
	C164.775909,216.773102 165.046677,217.043671 165.046661,217.043671 
z"/>
<path fill="#FEFEFE" opacity="1.000000" stroke="none" 
	d="
M267.104950,145.007080 
	C267.104950,212.296204 267.104950,279.087158 267.104950,346.515717 
	C256.367798,346.515717 245.865372,346.515717 235.021881,346.515717 
	C235.021881,344.434784 235.021881,342.794495 235.021896,341.154205 
	C235.022034,282.515778 235.015106,223.877365 235.026459,165.238937 
	C235.030029,146.871155 248.039230,133.453812 267.104950,132.769836 
	C267.104950,136.688782 267.104950,140.598846 267.104950,145.007080 
z"/>
<path fill="#FDFDFD" opacity="1.000000" stroke="none" 
	d="
M164.647491,216.631195 
	C164.925308,216.377625 165.331558,216.265976 165.737793,216.154327 
	C165.707443,216.415115 165.677078,216.675934 165.346710,216.990204 
	C165.046677,217.043671 164.775909,216.773102 164.647491,216.631195 
z"/>
<path fill="#FEFEFE" opacity="1.000000" stroke="none" 
	d="
M336.343933,216.649017 
	C336.362305,216.358276 336.581360,216.298950 336.800415,216.239624 
	C336.715149,216.453232 336.629883,216.666840 336.343933,216.649017 
z"/>
</svg>